<svg width="122" height="122" viewBox="0 0 122 122" fill="none" xmlns="http://www.w3.org/2000/svg">
<path d="M122 58.2742C121.823 58.1469 121.914 57.9596 121.908 57.8034C121.549 47.9342 118.847 38.7508 113.751 30.2776C110.099 24.2043 105.505 18.9314 99.9484 14.5109C91.8907 8.0987 82.7884 3.91992 72.6521 1.98147C67.0087 0.902361 61.3189 0.566948 55.6001 1.08857C41.9699 2.33076 29.9664 7.36658 19.7731 16.5233C13.6534 22.0207 9.07671 28.6237 5.73627 36.0999C3.35903 41.4226 1.63246 46.9418 0.682031 52.6947C0.376453 54.5407 0.234701 56.4028 0.0987599 58.2672C0.0894647 58.3956 0.155694 58.5529 0 58.6477V63.5089C0.187065 63.9311 0.125483 64.3868 0.156855 64.824C0.98877 76.0881 4.57786 86.4084 10.9625 95.734C17.7944 105.713 26.7549 113.15 38.0079 117.767C43.0063 119.818 48.2023 121.151 53.5842 121.665C70.8558 123.312 86.424 118.905 99.9112 108.04C109.959 99.9463 116.531 89.4502 119.833 76.9763C121.061 72.3395 121.769 67.6241 121.902 62.8265C121.907 62.6484 121.854 62.4506 121.999 62.2933V58.2742H122ZM31.0795 55.3723C30.3568 56.9383 30.0059 58.6119 29.4923 60.2381C29.0473 61.6445 28.6232 63.0578 28.0016 64.4018C27.8262 64.7812 27.6531 65.1628 27.2394 65.5387C27.3068 64.1982 27.5194 62.9942 27.7542 61.7937C28.0272 60.3907 28.3305 58.9936 28.607 57.5906C28.6546 57.35 28.6767 57.0886 28.6349 56.8492C28.521 56.1888 28.6535 55.5666 28.9486 54.9952C29.7584 53.4315 29.9734 51.7868 29.7445 50.06C29.6701 49.5037 29.6713 48.9404 29.813 48.3899C29.8595 48.2106 29.9246 47.9758 30.1058 47.9388C30.2941 47.9007 30.3405 48.1505 30.4288 48.2858C30.5822 48.5194 30.71 48.7704 30.8576 49.0075C32.1554 51.0871 32.0659 53.236 31.0795 55.3723ZM48.1291 98.2993C48.0524 98.5885 47.6527 98.4844 47.4239 98.5318C47.059 98.5041 46.7314 98.4636 46.4269 98.3363C44.4413 97.5117 42.9599 96.2325 42.408 94.0523C41.7027 91.2661 41.0079 88.4752 40.1957 85.719C39.5032 83.3654 38.6411 81.0487 37.5094 78.8743C36.7182 77.3545 36.0966 75.7203 34.9544 74.389C34.736 74.1346 34.564 73.8223 34.5512 73.4614C34.5419 73.1943 34.6256 73.067 34.9416 73.1133C36.1814 73.2949 37.1155 73.8477 37.8452 74.9245C38.8444 76.398 39.1791 78.0901 39.7228 79.7163C40.1713 81.0568 40.5478 82.4204 41.0311 83.7494C41.2286 84.2906 41.454 84.8123 41.7538 85.3096C42.6775 86.8421 43.0063 88.54 43.1109 90.2992C43.1644 91.2001 43.1806 92.1104 43.3282 92.9963C43.6198 94.7382 44.6144 96.037 46.1132 96.9496C46.5234 97.1994 46.9812 97.3717 47.4169 97.5799C47.4866 97.6135 47.5551 97.6528 47.6225 97.691C47.8723 97.8367 48.1988 98.0333 48.1291 98.2993ZM117.327 64.4435C116.956 70.3386 115.789 76.0742 113.673 81.583C109.973 91.2163 103.92 99.102 95.6285 105.301C90.1188 109.42 84.013 112.33 77.4623 114.367C73.3039 115.66 69.0525 116.509 64.7256 116.997C63.6532 117.118 62.5819 117.241 61.5025 117.298C61.1342 117.317 61.0285 117.206 61.0296 116.843C61.0401 113.635 61.0308 110.425 61.032 107.216C61.0354 96.6523 61.0401 86.0903 61.0552 75.5271C61.0552 75.1639 60.9866 75.0217 60.5928 74.9847C59.353 74.8702 58.1632 75.1015 56.9967 75.4566C55.657 75.8637 54.4185 76.4871 53.3263 77.373C52.9243 77.6992 52.5745 78.0762 52.298 78.5169C51.5974 79.6353 51.8379 80.6601 52.9754 81.3378C53.6958 81.7669 54.4975 81.9728 55.3178 82.1128C56.2612 82.2747 57.214 82.3314 58.169 82.321C58.4549 82.3175 58.5501 82.4077 58.5664 82.6853C58.6605 84.2872 58.7639 85.8879 58.8755 87.4875C58.8859 87.6459 58.8418 87.7523 58.7465 87.8264C58.7407 87.831 58.7349 87.8344 58.7291 87.8379C58.7012 87.8564 58.671 87.8738 58.6361 87.8888C58.635 87.89 58.6326 87.89 58.6315 87.8911C58.5687 87.9258 58.5025 87.957 58.4351 87.9813C58.4177 87.9871 58.4003 87.9917 58.3817 87.9975C58.3712 88.0033 58.3608 88.0068 58.3491 88.0102C58.2713 88.0426 58.1934 88.075 58.1144 88.1062C58.0947 88.1213 58.0714 88.1317 58.0459 88.1398C58.0331 88.1467 58.0203 88.1537 58.0052 88.1571C57.9727 88.1699 57.9378 88.178 57.9041 88.1895C57.8948 88.193 57.8855 88.1965 57.8762 88.1999C57.8611 88.2069 57.846 88.2138 57.8309 88.2196C57.8216 88.2231 57.8123 88.2242 57.803 88.2265C57.7333 88.2508 57.6625 88.2751 57.5916 88.2959C57.5172 88.3179 57.4429 88.3422 57.3708 88.3665C57.3325 88.385 57.2941 88.4023 57.2535 88.4104C57.2523 88.4104 57.2511 88.4104 57.25 88.4104C57.2256 88.4197 57.2 88.4278 57.1756 88.437C57.1594 88.4474 57.1419 88.4567 57.1222 88.4613C57.0943 88.4717 57.0664 88.4833 57.0374 88.4937C56.1729 88.8534 55.4502 89.4155 54.8437 90.1546C54.537 90.5282 54.2267 90.9017 53.891 91.2476C53.0985 92.063 52.2945 92.2214 51.25 91.7565C50.1218 91.2533 49.3038 90.4137 48.7507 89.3253C48.1036 88.0519 47.8735 86.6755 47.8061 85.2656C47.7538 84.175 47.8026 83.0866 47.8967 81.9994C47.9421 81.472 47.8108 81.0591 47.3971 80.6312C46.8046 80.0193 46.7581 79.1368 46.6872 78.311C46.65 77.8773 46.6373 77.4413 46.6036 77.0064C46.5431 76.2326 46.1644 75.6324 45.5834 75.1304C44.6609 74.3323 43.6942 73.5944 42.6949 72.897C42.1837 72.5408 41.6667 72.1799 41.2937 71.6664C41.1427 71.4582 40.93 71.5091 40.7395 71.5183C39.7821 71.5658 38.834 71.4698 37.8835 71.3772C37.4618 71.3356 37.499 71.2095 37.7069 70.94C38.1066 70.4219 38.497 69.898 38.8026 69.3139C39.3475 68.2741 39.3963 67.2262 38.8468 66.1853C38.2832 65.1189 38.0079 63.9866 37.937 62.7433C38.3239 62.7525 38.6167 62.9052 38.9107 63.0463C39.4196 63.2903 39.9029 63.5853 40.3328 63.9461C41.9234 65.2797 43.7755 65.7654 45.8181 65.733C46.9033 65.7157 47.9711 65.6232 49.0215 65.3479C49.7047 65.1686 50.346 65.2103 50.9444 65.6313C51.2395 65.8395 51.5776 65.969 51.9413 66.0153C52.829 66.1298 53.3495 65.6278 53.2031 64.7534C52.9673 63.3424 52.1923 62.2343 51.1651 61.2721C49.7 59.8992 47.9002 59.2966 45.9634 59.026C43.8266 58.7275 41.6864 58.4638 39.5474 58.1839C39.5009 58.1782 39.4533 58.1747 39.4079 58.1654C38.6562 58.0197 38.6539 58.0197 38.5145 57.2818C38.3483 56.3958 38.1845 55.5087 38.023 54.6216C37.9753 54.3637 37.8719 54.1486 37.6244 54.026C37.5966 54.0121 37.5722 53.9901 37.5443 53.9786C35.1938 52.9677 34.4467 50.9309 34.0969 48.6397C33.961 47.7491 33.8948 46.8458 33.6357 45.9749C33.5601 45.7205 33.4997 45.4452 33.2964 45.2682C32.1391 44.2608 31.6558 42.9053 31.3281 41.4804C30.5357 38.0384 30.5508 34.6299 31.8312 31.285C32.1275 30.5112 32.5063 29.7779 32.978 29.099C34.8289 26.4365 36.7158 23.7995 38.7155 21.2446C38.8653 21.0537 39.0361 20.8802 39.2557 20.6327C39.3429 21.3845 39.272 22.0438 39.222 22.7019C39.1419 23.7579 39.0466 24.8138 39.1663 25.8733C39.2011 26.1844 39.2441 26.4932 39.4149 26.7639C40.4397 28.3785 40.844 30.1966 41.145 32.0437C41.2647 32.777 41.2356 32.7863 41.9734 32.6336C43.5199 32.3132 45.0048 31.7731 46.5269 31.3625C49.4246 30.5795 52.2968 30.842 55.2144 31.3521C55.4874 31.3995 55.7523 31.4596 56.0091 31.5302C57.0246 31.6551 58.0052 32.0611 58.6582 32.703C58.7268 32.7701 58.7918 32.8406 58.8546 32.9112C59.3368 33.2558 59.7934 33.6433 60.2372 34.062C60.4103 33.9602 60.5962 33.8792 60.788 33.8168C60.8286 33.7936 60.8716 33.774 60.9158 33.7566C60.9216 33.7543 60.9285 33.7532 60.9344 33.752C60.9564 33.7393 60.9808 33.73 61.0052 33.7243C61.0192 33.7173 61.0331 33.7104 61.0505 33.7057C61.0773 24.2691 61.0993 14.8336 61.1203 5.39689C61.1203 5.19449 61.1412 4.98977 61.1156 4.78968C61.0773 4.48087 61.2109 4.39181 61.5014 4.37446C62.5203 4.31201 63.5358 4.39644 64.5502 4.44849C69.7183 4.71103 74.7411 5.71611 79.6164 7.44638C97.4515 13.7776 111.594 29.5085 115.978 47.8891C117.271 53.3378 117.678 58.8559 117.327 64.4435ZM42.8553 59.9767C45.3754 60.6926 47.8387 61.5092 50.2926 62.3199C50.2786 62.4113 50.2844 62.4506 50.2705 62.4599C48.7821 63.3956 47.1624 63.8374 45.4103 63.5806C44.0195 63.3759 43.1795 62.461 42.9355 61.0222C42.882 60.703 42.7984 60.3826 42.8553 59.9767Z" fill="black"/>
<path d="M38.1207 24.5693C38.2379 25.875 38.3482 27.059 38.4504 28.2442C38.6238 30.2543 38.7904 32.2645 38.965 34.2746C38.9833 34.48 38.9776 34.6459 38.8179 34.8082C37.0043 36.6585 35.1987 38.5175 33.3897 40.3727C33.3128 40.4514 33.222 40.5153 33.0417 40.6666C33.0681 40.0961 33.0658 39.6141 33.1175 39.1396C33.4115 36.4458 33.763 33.7607 34.1903 31.0867C34.2615 30.6441 34.4177 30.2482 34.7278 29.9617C35.9384 28.8441 36.7539 27.4426 37.3719 25.8861C37.5453 25.4509 37.7452 25.0205 38.1207 24.5693Z" fill="black"/>
<path d="M54.5881 60.1527C54.4462 59.5761 54.4092 59.0188 54.4044 58.4546C54.3917 57.0449 54.5201 55.6294 54.2508 54.2287C54.2012 53.9687 54.2246 53.6804 54.2576 53.4124C54.3159 52.941 54.6882 52.5442 55.0449 52.5284C55.4027 52.5125 55.6719 52.7861 55.7924 53.313C55.9489 53.9992 55.9276 54.7024 55.8887 55.3988C55.8226 56.5813 55.7322 57.7639 55.4163 58.9001C55.2763 59.4032 55.113 59.9119 54.5881 60.1527Z" fill="black"/>
<path d="M98.5912 41.3917L89.7296 32.1943H60.1528V87.2638H91.1371L99.9722 78.4711V62.34L95.7141 58.9818L98.4761 54.8429L98.5912 41.3917ZM87.0827 75.882L82.9396 79.2161H72.3518V64.9601H82.9396L87.0827 67.9492V75.882ZM87.0827 52.8885L83.0547 55.4178H72.3518V41.3917H82.9396L87.0827 44.2659V52.8885Z" fill="black"/>
<path d="M67.4757 20.6349V31.9719H61.0217V20.6349H67.4757Z" fill="black"/>
<path d="M79.6676 20.6105V31.9718H73.2136V20.6105H79.6676Z" fill="black"/>
<path d="M67.4364 87.3276V98.6646H60.9824V87.3276H67.4364Z" fill="black"/>
<path d="M79.6989 87.3276V98.6646H73.2449V87.3276H79.6989Z" fill="black"/>
</svg>
